<?xml version="1.0" encoding="UTF-8"?>
<svg width="752pt" height="752pt" version="1.1" viewBox="0 0 752 752" xmlns="http://www.w3.org/2000/svg">
 <g>
  <path fill="rgb(239, 240, 220)" d="m376 191.01c12.238 0 22.199-9.9609 22.199-22.199 0-12.238-9.9609-22.199-22.199-22.199s-22.199 9.9609-22.199 22.199c0 12.242 9.9609 22.199 22.199 22.199zm0-29.598c4.0859 0 7.3984 3.3242 7.3984 7.3984 0 4.0781-3.3164 7.3984-7.3984 7.3984-4.0859 0-7.3984-3.3242-7.3984-7.3984 0-4.0742 3.3164-7.3984 7.3984-7.3984z"/>
  <path fill="rgb(239, 240, 220)" d="m235.41 376c0-12.238-9.9609-22.199-22.199-22.199s-22.199 9.9609-22.199 22.199 9.9609 22.199 22.199 22.199 22.199-9.957 22.199-22.199zm-22.199 7.4023c-4.0859 0-7.3984-3.3242-7.3984-7.3984 0-4.0781 3.3164-7.3984 7.3984-7.3984 4.0859 0 7.3984 3.3242 7.3984 7.3984 0.003906 4.0742-3.3125 7.3984-7.3984 7.3984z"/>
  <path fill="rgb(239, 240, 220)" d="m583.19 353.8c-12.238 0-22.199 9.9609-22.199 22.199s9.9609 22.199 22.199 22.199c12.238 0 22.199-9.9609 22.199-22.199s-9.957-22.199-22.199-22.199zm0 29.602c-4.0859 0-7.3984-3.3242-7.3984-7.3984 0-4.0781 3.3164-7.3984 7.3984-7.3984 4.0859 0 7.3984 3.3242 7.3984 7.3984 0.003906 4.0742-3.3125 7.3984-7.3984 7.3984z"/>
  <path fill="rgb(239, 240, 220)" d="m228.01 501.8c-12.238 0-22.199 9.9609-22.199 22.199 0 12.238 9.9609 22.199 22.199 22.199 12.238 0 22.199-9.9609 22.199-22.199 0-12.238-9.9609-22.199-22.199-22.199zm0 29.598c-4.0859 0-7.3984-3.3242-7.3984-7.3984 0-4.0781 3.3164-7.3984 7.3984-7.3984 4.0859 0 7.3984 3.3242 7.3984 7.3984 0 4.0781-3.3125 7.3984-7.3984 7.3984z"/>
  <path fill="rgb(239, 240, 220)" d="m479.6 524c12.238 0 22.199-9.9609 22.199-22.199s-9.9609-22.199-22.199-22.199c-12.238 0-22.199 9.9609-22.199 22.199s9.9609 22.199 22.199 22.199zm0-29.598c4.0859 0 7.3984 3.3242 7.3984 7.3984 0 4.0781-3.3164 7.3984-7.3984 7.3984-4.0859 0-7.3984-3.3242-7.3984-7.3984 0-4.0781 3.3125-7.3984 7.3984-7.3984z"/>
  <path fill="rgb(239, 240, 220)" d="m376 546.2c26.254 0 51.457-5.8477 74.922-17.367l-6.5195-13.281c-21.414 10.512-44.434 15.848-68.402 15.848-72.648 0-134.88-49.371-151.31-120.07l-14.406 3.3516c17.996 77.438 86.148 131.52 165.71 131.52z"/>
  <path fill="rgb(239, 240, 220)" d="m546.2 376c0-93.84-76.344-170.19-170.2-170.19-79.566 0-147.72 54.086-165.72 131.52l14.406 3.3516c16.445-70.699 78.668-120.07 151.32-120.07 85.68 0 155.39 69.707 155.39 155.39 0 34.496-11.098 67.188-32.102 94.539l11.734 9.0117c23.004-29.965 35.168-65.77 35.168-103.55z"/>
  <path fill="rgb(239, 240, 220)" d="m376 575.79c-40.883 0-80.219-12.305-113.75-35.578l-8.4414 12.156c36.02 25.004 78.281 38.223 122.2 38.223 103.91 0 192.69-74.137 211.11-176.28l-14.57-2.6211c-17.145 95.086-99.805 164.1-196.54 164.1z"/>
  <path fill="rgb(239, 240, 220)" d="m176.21 376c0-96.734 69.016-179.4 164.11-196.55l-2.6328-14.562c-102.14 18.418-176.28 107.21-176.28 211.11 0 43.91 13.215 86.168 38.219 122.19l12.156-8.4414c-23.277-33.535-35.574-72.863-35.574-113.75z"/>
  <path fill="rgb(239, 240, 220)" d="m572.55 340.32 14.57-2.625c-15.805-87.605-85.25-157.07-172.8-172.87l-2.6328 14.562c81.508 14.703 146.15 79.371 160.87 160.93z"/>
  <path fill="rgb(239, 240, 220)" d="m376 339c20.402 0 37 16.598 37 37 0 5.5039-1.2266 10.855-3.6406 15.91l13.355 6.3789c3.375-7.0625 5.0859-14.566 5.0859-22.293 0-28.562-23.242-51.797-51.797-51.797-7.7344 0-15.234 1.7109-22.301 5.0898l6.3867 13.355c5.0547-2.418 10.414-3.6445 15.91-3.6445z"/>
  <path fill="rgb(239, 240, 220)" d="m391.91 409.35c-5.0547 2.4219-10.41 3.6484-15.91 3.6484-20.402 0-37-16.598-37-37 0-5.5039 1.2266-10.855 3.6406-15.91l-13.355-6.3789c-3.3711 7.0625-5.082 14.566-5.082 22.289 0 28.562 23.242 51.797 51.797 51.797 7.7344 0 15.234-1.7109 22.301-5.0898z"/>
  <path fill="rgb(239, 240, 220)" d="m485.42 459.95-19.699-2.4844c-5.4453-0.6875-15.918-2.5156-26.699-5.5273 12.262-2.2656 25.492-7.4727 36.391-18.375 27.438-27.43 33.188-54.949 33.426-56.105l3.8906-19.469-15.688 12.172c-4.3438 3.375-13.039 9.4805-22.785 14.977 7.0625-10.277 12.738-23.316 12.738-38.73 0-38.797-15.383-62.32-16.043-63.305l-10.996-16.492-2.5 19.676c-0.69531 5.4531-2.5234 15.926-5.5273 26.699-2.2734-12.27-7.4805-25.5-18.367-36.391-27.438-27.43-54.949-33.188-56.105-33.418l-19.445-3.8867 12.148 15.68c3.3672 4.3438 9.4648 13.039 14.953 22.777-10.273-7.0742-23.305-12.734-38.711-12.734-38.789 0-62.32 15.391-63.305 16.043l-16.516 11.012 19.699 2.4844c5.4453 0.6875 15.918 2.5156 26.699 5.5273-12.262 2.2656-25.492 7.4727-36.391 18.375-27.438 27.43-33.188 54.949-33.426 56.105l-3.8906 19.469 15.688-12.172c4.3438-3.375 13.031-9.4805 22.777-14.969-7.0625 10.266-12.73 23.305-12.73 38.719 0 38.797 15.383 62.32 16.043 63.305l10.996 16.492 2.5-19.676c0.69531-5.4531 2.5234-15.926 5.5273-26.699 2.2734 12.27 7.4805 25.5 18.367 36.391 27.438 27.43 54.949 33.188 56.105 33.418l19.445 3.8867-12.148-15.68c-3.3672-4.3438-9.4648-13.039-14.953-22.777 10.273 7.0742 23.305 12.734 38.711 12.734 38.789 0 62.32-15.391 63.305-16.043zm-79.82 12.254c-27.504 0-46.254-23.848-51.348-31.152l-15.863-22.77 2.418 27.645c1.1172 12.801 8.5391 27.965 15.645 39.871-8.1328-4.4688-17.812-11.105-27.551-20.836-19.426-19.43-15.844-49.57-14.281-58.348l4.8555-27.281-17.805 21.23c-8.2656 9.8398-13.734 25.809-17.129 39.254-2.5859-8.9141-4.7383-20.449-4.7383-34.211 0-27.512 23.848-46.254 31.152-51.348l22.77-15.859-27.637 2.4141c-12.785 1.1172-27.902 8.5078-39.805 15.598 4.4766-8.1562 11.105-17.84 20.77-27.504 19.453-19.445 49.57-15.844 58.34-14.273l27.305 4.8828-21.25-17.832c-9.8398-8.2656-25.809-13.734-39.254-17.129 8.8984-2.5938 20.453-4.7461 34.207-4.7461 27.504 0 46.254 23.848 51.348 31.152l15.863 22.77-2.418-27.645c-1.1172-12.801-8.5391-27.965-15.645-39.871 8.1328 4.4688 17.812 11.105 27.551 20.836 19.426 19.43 15.844 49.57 14.281 58.348l-4.8555 27.281 17.805-21.23c8.2656-9.8398 13.734-25.809 17.129-39.254 2.582 8.9102 4.7383 20.449 4.7383 34.211 0 27.504-23.848 46.254-31.152 51.348l-22.762 15.859 27.629-2.418c12.785-1.1172 27.902-8.5078 39.805-15.605-4.4688 8.1562-11.105 17.848-20.77 27.504-19.453 19.438-49.57 15.844-58.34 14.273l-27.305-4.8828 21.25 17.832c9.8398 8.2656 25.809 13.734 39.254 17.129-8.9023 2.6016-20.453 4.7578-34.207 4.7578z"/>
 </g>
</svg>
